<svg width="20" height="20" viewBox="0 0 20 20" fill="none" xmlns="http://www.w3.org/2000/svg">
<rect width="20" height="20" rx="5" fill="#424242"/>
<path d="M9.92187 12.1875C10.502 12.1875 11.0584 11.957 11.4687 11.5468C11.8789 11.1366 12.1094 10.5802 12.1094 10C12.1094 9.93595 12.1064 9.87248 12.101 9.80978L9.73163 12.1791C9.79433 12.1846 9.85761 12.1875 9.92187 12.1875ZM17.1625 3.2336L16.3281 2.40001C16.2988 2.37073 16.2591 2.35428 16.2177 2.35428C16.1762 2.35428 16.1365 2.37073 16.1072 2.40001L13.9721 4.53575C12.7942 3.9338 11.4702 3.63282 9.99999 3.63282C6.24608 3.63282 3.4453 5.5879 1.59765 9.49806C1.52338 9.65532 1.48486 9.82708 1.48486 10.001C1.48486 10.1749 1.52338 10.3467 1.59765 10.5039C2.33593 12.059 3.22493 13.3054 4.26464 14.2432L2.19843 16.3086C2.16915 16.3379 2.1527 16.3776 2.1527 16.4191C2.1527 16.4605 2.16915 16.5002 2.19843 16.5295L3.03222 17.3633C3.06152 17.3926 3.10124 17.409 3.14267 17.409C3.18409 17.409 3.22382 17.3926 3.25312 17.3633L17.1625 3.4547C17.177 3.44018 17.1885 3.42295 17.1964 3.40398C17.2043 3.38501 17.2083 3.36468 17.2083 3.34415C17.2083 3.32361 17.2043 3.30328 17.1964 3.28431C17.1885 3.26535 17.177 3.24811 17.1625 3.2336ZM6.48437 10C6.48431 9.40628 6.63805 8.82264 6.93059 8.30598C7.22314 7.78931 7.64452 7.35723 8.15369 7.05183C8.66286 6.74642 9.24245 6.5781 9.836 6.56327C10.4296 6.54844 11.0168 6.6876 11.5406 6.9672L10.591 7.91681C10.208 7.79418 9.79869 7.77942 9.40788 7.87412C9.01707 7.96883 8.6599 8.16936 8.37556 8.45371C8.09121 8.73805 7.89069 9.09522 7.79598 9.48603C7.70127 9.87684 7.71604 10.2862 7.83866 10.6692L6.88905 11.6188C6.62257 11.1209 6.48353 10.5647 6.48437 10V10Z" fill="#B7B7B7"/>
<path d="M18.4023 9.4961C17.7148 8.04818 16.8965 6.86752 15.9474 5.9541L13.1322 8.76954C13.3695 9.38988 13.4221 10.0657 13.2836 10.7153C13.1452 11.3649 12.8216 11.9605 12.3519 12.4301C11.8823 12.8998 11.2867 13.2234 10.6371 13.3618C9.98749 13.5003 9.3117 13.4477 8.69136 13.2104L6.30347 15.5983C7.41128 16.1109 8.64344 16.3672 9.99995 16.3672C13.7539 16.3672 16.5546 14.4121 18.4023 10.502C18.4766 10.3447 18.5151 10.173 18.5151 9.99904C18.5151 9.82512 18.4766 9.65336 18.4023 9.4961V9.4961Z" fill="#B7B7B7"/>
</svg>
